<svg viewBox="-20 -15 1040 631.6" preserveAspectRatio="xMaxYMid meet"><defs><linearGradient id=linear-gradient x1=1057.3 x2=1103.8 y1=672.1 y2=672.1 gradientTransform="translate(-124 -300)"gradientUnits=userSpaceOnUse><stop id=stop1 offset=0 stop-color=#005a37 /><stop id=stop2 offset=.5 stop-color=#006c44 /><stop id=stop3 offset=1 stop-color=#008658 /></linearGradient><linearGradient id=linear-gradient-2 x1=1098.1 x2=1008.8 y1=700.5 y2=700.5 gradientTransform="translate(-124 -300)"gradientUnits=userSpaceOnUse><stop id=stop4 offset=0 stop-color=#008658 /><stop id=stop5 offset=.3 stop-color=#068c5c /><stop id=stop6 offset=.6 stop-color=#1a9d67 /><stop id=stop7 offset=1 stop-color=#35b677 /></linearGradient><linearGradient id=linear-gradient-3 x1=-59.6 x2=993 y1=175 y2=175 gradientTransform="rotate(-7 2626 -317)"gradientUnits=userSpaceOnUse><stop id=stop8 offset=0 stop-color=#fff stop-opacity=0 /><stop id=stop9 offset=.7 stop-color=#fff stop-opacity=.2 /><stop id=stop10 offset=1 stop-color=#fff stop-opacity=.3 /></linearGradient><linearGradient id=linear-gradient-4 x1=13.9 x2=61.1 y1=-1009.7 y2=-1091.5 gradientTransform="rotate(-20 4226 -971)"gradientUnits=userSpaceOnUse><stop id=stop11 offset=0 stop-color=#fff stop-opacity=0 /><stop id=stop12 offset=1 stop-color=#a87c4f /></linearGradient><linearGradient id=linear-gradient-5 x1=345.3 x2=524.2 y1=-879.3 y2=-879.3 gradientTransform="rotate(-18 3800 -950)"gradientUnits=userSpaceOnUse><stop id=stop13 offset=0 stop-color=#fff stop-opacity=0 /><stop id=stop14 offset=.1 stop-color=#fcfbfa stop-opacity=0 /><stop id=stop15 offset=.3 stop-color=#f6f2ee stop-opacity=.1 /><stop id=stop16 offset=.4 stop-color=#ece3d9 stop-opacity=.2 /><stop id=stop17 offset=.5 stop-color=#decdbc stop-opacity=.4 /><stop id=stop18 offset=.6 stop-color=#cbb197 stop-opacity=.6 /><stop id=stop19 offset=.8 stop-color=#b5906a stop-opacity=.8 /><stop id=stop20 offset=.8 stop-color=#a87c4f /></linearGradient><linearGradient id=linear-gradient-6 x1=444.8 x2=961.5 y1=618.5 y2=618.5 gradientTransform="translate(-124 -300)"gradientUnits=userSpaceOnUse><stop id=stop21 offset=0 stop-color=#1b6936 stop-opacity=0 /><stop id=stop22 offset=.5 stop-color=#1a6835 stop-opacity=0 /><stop id=stop23 offset=.8 stop-color=#1a6835 stop-opacity=.1 /><stop id=stop24 offset=.9 stop-color=#196835 stop-opacity=.2 /><stop id=stop25 offset=1 stop-color=#196835 stop-opacity=.3 /></linearGradient><linearGradient id=linear-gradient-7 x1=-251.2 x2=-.9 y1=676.5 y2=676.5 gradientTransform="rotate(31 214 1915)scale(-1 1)"gradientUnits=userSpaceOnUse><stop id=stop28 offset=0 stop-color=#fff stop-opacity=0 /><stop id=stop29 offset=.2 stop-color=#c0d6c8 stop-opacity=.1 /><stop id=stop30 offset=.7 stop-color=#45855c stop-opacity=.3 /><stop id=stop31 offset=1 stop-color=#196835 stop-opacity=.3 /></linearGradient><linearGradient id=linear-gradient-8 x1=-84.6 x2=-84.6 y1=558.3 y2=631.6 gradientTransform="translate(-124 -300)"href=#linear-gradient-7 /><linearGradient id=linear-gradient-9 x1=170.9 x2=170 y1=565.5 y2=610.5 gradientTransform="rotate(31 214 1915)scale(-1 1)"gradientUnits=userSpaceOnUse><stop id=stop32 offset=0 stop-color=#fff stop-opacity=0 /><stop id=stop33 offset=.6 stop-color=#639976 stop-opacity=.3 /><stop id=stop34 offset=1 stop-color=#196835 stop-opacity=.5 /></linearGradient><linearGradient id=linear-gradient-10 x1=-78.6 x2=-78.6 y1=477.7 y2=615.1 gradientTransform="translate(-124 -300)"href=#linear-gradient-9 /><linearGradient id=linear-gradient-11 x1=10137.6 x2=10196.4 y1=-1581.3 y2=-1588.7 gradientTransform="rotate(164 5358 198)scale(1 -1)"gradientUnits=userSpaceOnUse><stop id=stop35 offset=0 stop-color=#fff stop-opacity=0 /><stop id=stop36 offset=.2 stop-color=#f5f8f6 stop-opacity=0 /><stop id=stop37 offset=.4 stop-color=#d8e6dd stop-opacity=.2 /><stop id=stop38 offset=.6 stop-color=#a9c7b4 stop-opacity=.4 /><stop id=stop39 offset=.8 stop-color=#689b7a stop-opacity=.7 /><stop id=stop40 offset=1 stop-color=#196835 /></linearGradient><linearGradient id=linear-gradient-12 x1=382.7 x2=459.1 y1=806.5 y2=806.5 gradientTransform="translate(-124 -300)"gradientUnits=userSpaceOnUse><stop id=stop41 offset=0 stop-color=#008658 /><stop id=stop42 offset=.5 stop-color=#006c44 /><stop id=stop43 offset=1 stop-color=#005a37 /></linearGradient><linearGradient id=linear-gradient-13 x1=264.1 x2=439.4 y1=775.9 y2=775.9 gradientUnits=userSpaceOnUse><stop id=stop44 offset=0 stop-color=#008658 /><stop id=stop45 offset=.6 stop-color=#22a56c /><stop id=stop46 offset=1 stop-color=#35b677 /></linearGradient><linearGradient id=linear-gradient-14 x1=457.1 x2=417.6 y1=818.4 y2=818.4 gradientTransform="translate(-124 -300)"href=#linear-gradient-13 /><linearGradient id=linear-gradient-16 x1=518 x2=518 y1=492.3 y2=672.3 gradientTransform="translate(-124 -300)"gradientUnits=userSpaceOnUse><stop id=stop51 offset=0 stop-color=#1b6936 stop-opacity=0 /><stop id=stop52 offset=.4 stop-color=#1a6835 stop-opacity=0 /><stop id=stop53 offset=.7 stop-color=#1a6835 stop-opacity=.1 /><stop id=stop54 offset=1 stop-color=#196835 stop-opacity=.3 /></linearGradient><linearGradient id=linear-gradient-17 x1=-8.1 x2=-8.1 y1=134.1 y2=400 gradientTransform="rotate(-179 118 -69)scale(1 -1)"gradientUnits=userSpaceOnUse><stop id=stop55 offset=0 stop-color=#0d6b37 stop-opacity=0 /><stop id=stop56 offset=.5 stop-color=#0c6a36 stop-opacity=0 /><stop id=stop57 offset=.7 stop-color=#0c6a36 stop-opacity=.1 /><stop id=stop58 offset=.8 stop-color=#0c6a36 stop-opacity=.2 /><stop id=stop59 offset=.9 stop-color=#0b6a36 stop-opacity=.3 /><stop id=stop60 offset=1 stop-color=#0b6a36 stop-opacity=.5 /></linearGradient><linearGradient id=linear-gradient-18 x1=2161.3 x2=2161.3 y1=-3069.5 y2=-3054.5 gradientTransform="matrix(1 .02 .02 -1 -1793 -2678)"gradientUnits=userSpaceOnUse><stop id=stop65 offset=0 stop-color=#fff stop-opacity=0 /><stop id=stop66 offset=.1 stop-color=#fff stop-opacity=.1 /><stop id=stop67 offset=.3 stop-color=#fff stop-opacity=.4 /><stop id=stop68 offset=.5 stop-color=#fff stop-opacity=.6 /><stop id=stop69 offset=.6 stop-color=#fff stop-opacity=.8 /><stop id=stop70 offset=.8 stop-color=#fff stop-opacity=.9 /><stop id=stop71 offset=.9 stop-color=#fff stop-opacity=1 /><stop id=stop72 offset=1 stop-color=#fff /></linearGradient><linearGradient id=linear-gradient-19 x1=1.7 x2=52.5 y1=285.4 y2=373.4 gradientTransform="rotate(-179 118 -69)scale(1 -1)"gradientUnits=userSpaceOnUse><stop id=stop73 offset=0 stop-color=#fff stop-opacity=0 /><stop id=stop74 offset=1 stop-color=#196835 stop-opacity=.5 /></linearGradient><linearGradient id=linearGradient115 x1=-251.2 x2=-.9 y1=676.5 y2=676.5 gradientTransform="rotate(31 692 1543)scale(-1 1)"gradientUnits=userSpaceOnUse href=#linear-gradient-7 /><linearGradient id=linearGradient116 x1=170.9 x2=170 y1=565.5 y2=610.5 gradientTransform="rotate(31 692 1543)scale(-1 1)"gradientUnits=userSpaceOnUse href=#linear-gradient-9 /><linearGradient id=linearGradient117 x1=264.1 x2=439.4 y1=775.9 y2=775.9 gradientTransform="translate(-124 -300)"gradientUnits=userSpaceOnUse href=#linear-gradient-13 /><linearGradient id=linearGradient119 x1=2161.3 x2=2161.3 y1=-3069.5 y2=-3054.5 gradientTransform="matrix(1 .02 .02 -1 -1919 -2990)"gradientUnits=userSpaceOnUse href=#linear-gradient-18 /><radialGradient cx=56 cy=427.5 fx=56 fy=427.5 gradientTransform="rotate(31 214 1915)scale(-1 1)"id=radial-gradient r=209 gradientUnits=userSpaceOnUse><stop id=stop26 offset=0 stop-color=#a7d8bb /><stop id=stop27 offset=1 stop-color=#fff stop-opacity=0 /></radialGradient><radialGradient cx=-75.5 cy=583.8 fx=-75.5 fy=583.8 gradientTransform="translate(-124 -300)"id=radial-gradient-2 r=62.8 href=#radial-gradient /><radialGradient cx=-.4 cy=228.8 fx=-.4 fy=228.8 gradientTransform="rotate(-179 118 -69)scale(1 -1)"id=radial-gradient-3 r=99.8 href=#radial-gradient /><radialGradient cx=21.5 cy=345.7 fx=21.5 fy=345.7 gradientTransform="rotate(-179 118 -69)scale(1 -1)"id=radial-gradient-5 r=54.8 href=#radial-gradient /><radialGradient cx=56 cy=427.5 fx=56 fy=427.5 gradientTransform="rotate(31 692 1543)scale(-1 1)"id=radialGradient115 r=209 href=#radial-gradient gradientUnits=userSpaceOnUse /><clipPath clipPathUnits=userSpaceOnUse id=clipPath120><circle cx=181.7 cy=442 fill=#fff id=circle121 r=50 /></clipPath><style id=style1>.cls-5{fill:#8e755a}.cls-6{fill:url(#radial-gradient-4)}.cls-20{mix-blend-mode:multiply}.cls-22{isolation:isolate}.cls-20{fill:url(#linear-gradient-15)}.cls-23{fill:#008657}.cls-24{fill:#34b677}.cls-29{fill:#a47c53}</style></defs><g id=climbing-geeko><path d="M0 347s190-33 239-24c48 8 182 14 266 50 83 36 334 92 354 91 33-1 84 7 96 10 20 7 121 13 121 13s2 56 0 57c-4 6-124-21-124-21l-127-14S325 355 209 361c-115 5-196 19-203 4l-6-16z"id=path80 style=isolation:isolate class=cls-29 /><path d="M240 336c49 8 183 14 266 50 84 36 334 92 354 91 34-1 84 7 96 11 7 2 121 17 121 17l-1-18s-108-7-121-13c-12-3-63-11-96-10-20 1-271-55-354-91-84-36-218-42-266-50-49-9-239 24-239 24v2l4 10c24-4 191-31 236-23"id=path81 fill=url(#linear-gradient-3) /><path d="m5 361 1 4c7 15 88 1 203-4 78-4 201 32 276 52l21-39-1-1-18-7-30 6s-73 5-73-6c1-8 8-18 12-23l-24-4-51 19-60-11 11-20-48-6-23 12C177 345 5 361 5 361"id=path82 style=mix-blend-mode:multiply;opacity:.5;isolation:isolate fill=url(#linear-gradient-4) /><path d="M945 503c-12-4-62-11-96-10-20 0-270-56-354-92-83-36-217-42-266-50-37-6-157 11-211 20 27 4 98-6 191-10 116-6 616 148 616 148s73 11 108 12c11 0 13 1 19 2 0 0 57 14 57 12 1 0 61 13 67 9l1-16c-9-4-47-6-48-6-14-6-55-12-55-12z"id=path84 class=cls-5 /><path d="M601 447q7 1 40 9l136 36 16-39c-83-18-118-28-176-43z"id=path85 style=mix-blend-mode:multiply;isolation:isolate fill=url(#linear-gradient-5) /><path d="M664 462c-2-10 3-22 5-32l2-6c-44-11-88-23-123-35l2 4q8 19 3 38z"id=path96 style=isolation:isolate class=cls-29 /><path d="m669 430 2-6c-44-11-88-23-123-35l2 4 4 11 113 32z"id=path97 style=isolation:isolate fill=#b38f6d /><path d="m664 453-110-30-1 8 111 31z"id=path98 style=isolation:isolate class=cls-5 /><g id=gc-leaves-2><path d="m969 477 4-6q5-4 5-10l-5 4-11 10-3 3z"id=path74 style=isolation:isolate class=cls-29 /><path d="M951 283c6 11 18 18 27 27q19 18 24 41 8 33-2 63l-5 16q-3 9-10 16-5 5-6 12l-3 6 2-11q0-4-2-7a168 168 0 0 1-42-80q-2-12 3-24l11-41 1-14v-4z"id=path75 style=isolation:isolate class=cls-23 /><path d="M976 463v-2q3-11-6-20l-18-22q-20-29-18-65l5-25 8-28q3-9 2-20l3 4q9 27 15 55l11 66q4 23 1 45v7l-1 6z"id=path76 style=isolation:isolate fill=url(#linear-gradient) /><path d="m975 466-5-6q-3-4-7-5l-39-11q-16-11-28-27-11-17-11-37l1-37q0-6 5-4l23 1q22 6 37 25 16 18 18 43l2 42q0 4 2 8l4 5-1 3z"id=path77 style=isolation:isolate class=cls-23 /><path d="M974 462q-6-4-15-5-24-4-45-19a68 68 0 0 1-29-56l2-37v-6q4 2 5 6l34 53q22 32 46 61z"id=path78 style=isolation:isolate fill=url(#linear-gradient-2) /></g><path d="M360 290c-10 0-22 7-30 13l-11 11-17 19q-11 6-21 1c-9-3-32-1-39-7-7-5 20-20 23-22s30-21 36-30l4-7 1-7c3-11 11-33 33-45 30-17 65 25 64 51-1 24-25 23-30 23h-13"id=path79 style=isolation:isolate class=cls-23 /><path d="m331 206-5-3c-34-26-23-91 13-121 20-18 85-13 91-14q18 1 35 3a424 424 0 0 1 137 38c29 14 104 55 100 120-2 51-57 82-90 96q-14 3-26 9c-56 4-86-4-113-17l-27-16-18-11-8-5q-48-30-68-51z"id=path83 style=isolation:isolate class=cls-24 /><path d="M392 275c22 4 28 10 51 24l35 20c5 4-9 32-33 25-10-3-11 3-15 6-1 0 10 2 16 5 11 4 24 8 24 17 1 12-10 24-10 26 7 9 32-5 33-5l36-25 39-25q42-24 89-24c39 2 94 25 116 79 22 58-23 113-77 120q-34 4-62-16c-35-23-45-66-19-95q14-16 35-16 14 0 26 8 15 7 19 22c3 12-3 25-14 30q-10 2-16 9-2 8 3 13 10 8 22 4c19-5 34-22 37-42 4-26-13-51-35-64a92 92 0 0 0-95 6c-28 19-43 53-41 86 4 74 96 121 164 102 43-12 73-31 101-82 20-36 21-84 9-124a380 380 0 0 0-209-241 541 541 0 0 0-156-47c-16-2-36-5-51-1-51 9-119 87-83 136 4 3 16 18 22 28 5 7 7 24 10 23 0 0 17 16 29 18"id=path86 style=isolation:isolate class=cls-24 /><path d="M392 275c22 4 28 10 51 24l35 20c5 4-9 32-33 25-10-3-11 3-15 6-1 0 10 2 16 5 11 4 24 8 24 17 1 12-10 24-10 26 7 9 32-5 33-5l36-25 39-25q42-24 89-24c39 2 94 25 116 79 22 58-23 113-77 120q-34 4-62-16c-35-23-45-66-19-95q14-16 35-16 14 0 26 8 15 7 19 22c3 12-3 25-14 30q-10 2-16 9-2 8 3 13 10 8 22 4c19-5 34-22 37-42 4-26-13-51-35-64a92 92 0 0 0-95 6c-28 19-43 53-41 86 4 74 96 121 164 102 43-12 73-31 101-82 20-36 21-84 9-124a380 380 0 0 0-209-241 541 541 0 0 0-156-47c-16-2-36-5-51-1-51 9-119 87-83 136 4 3 16 18 22 28 5 7 7 24 10 23 0 0 17 16 29 18"id=path87 style=mix-blend-mode:multiply;isolation:isolate fill=url(#linear-gradient-6) /><path d="M413 69s35 1 51 3q27 3 53 10 53 13 102 37 57 27 103 68c49 47 89 108 107 173q7 25 8 49C676 79 375 124 375 124l-5-54z"id=path88 style=isolation:isolate fill=url(#radialGradient115) opacity=.3 /><path d="M629 535c56 38 158-8 161-9q-30 28-70 39c-68 19-161-28-165-102q-1-27 11-50c-10 33 6 84 63 122"id=path89 style=mix-blend-mode:multiply;isolation:isolate fill=url(#linearGradient115) /><path d="M702 411c15 38-22 55-30 52s-3-8-2-8l11-5c11-4 17-18 14-29q-6-15-19-22-12-8-27-9-20 1-34 17-9 8-12 19s8-25 18-38c11-13 65-16 81 23"id=path90 style=isolation:isolate fill=url(#linear-gradient-8) /><path d="M595 376c27-19 66-22 95-6 22 13 39 38 35 64q-2 15-13 27c0-1 17-56-23-80-41-24-100 1-120 21q11-15 26-26"id=path91 style=isolation:isolate fill=url(#radial-gradient-2) opacity=.3 /><path d="m490 280-11 42q0-2-2-3l-35-20c-23-15-29-20-51-24 13-4 34-12 43-10l20 3z"id=path92 style=mix-blend-mode:multiply;isolation:isolate fill=url(#linearGradient116) /><path d="M429 269q-16 12-22 32l-4 17-3 12s-20 37-31 40c-7 3-21 5-20-3-1-7 21-29 6-30l-29-4s2-7 14-10 19-18 20-31l-1-9-3-7c-4-12-10-39 4-64 20-35 81-17 98 8 14 23-11 38-16 40l-1 1q-6 3-12 8"id=path93 style=isolation:isolate class=cls-24 /><path d="M598 313s99-41 167 40c67 81-17 141-17 141 26-23 39-59 24-96-21-54-76-77-115-79q-48 0-89 24l-32 20c24-21 39-43 62-50"id=path94 style=mix-blend-mode:multiply;isolation:isolate fill=url(#linear-gradient-10) /><path d="M338 83c5-3 8-9 32-13l-10 140q-1-1-8 24-6-7-9-13c-18-36-12-76-24-87q-1-43 19-51"id=path95 style=mix-blend-mode:multiply;isolation:isolate fill=url(#linear-gradient-11) /><path d="m334 415 6-9 8-7c5-6 3-20 9-27l15 11-28 28-8 5z"id=path99 style=isolation:isolate class=cls-5 /><g id=gc-leaves-1><path d="m335 418-8 23q-4 17-16 31l-15 18c-20 23-28 50-33 79l-5 33 5-2 25-12q16-9 28-22c14-16 21-62 8-79-5-6-2-13-1-19l14-49z"id=path100 style=isolation:isolate class=cls-23 /><path d="m259 600 15-7q35-15 43-54l12-81 5-45-2 5q-1 15-9 30l-23 68c-9 24-17 48-33 69z"id=path101 style=isolation:isolate fill=url(#linear-gradient-12) /><path d="m331 454 8-43-15 11-4 3q-13 14-34 12-52-4-92 32l-43 38-11 9q20 8 38 15 48 14 87-17 25-23 37-54l5-10q7-19 26-30l1 2-8 36q-1 3-4 6a72 72 0 0 0-21 69l8 47v15c27-14 39-38 46-65 6-29-6-52-24-76"id=path102 style=isolation:isolate class=cls-23 /><path d="M316 434q-32 1-65 5-40 7-70 34-24 18-41 43 7 3 12 2 49-15 94-41l62-38z"id=path103 style=isolation:isolate fill=url(#linearGradient117) /><path d="m333 438-14 25q-4 8-9 14a87 87 0 0 0-15 67q3 22 11 43l4 12q14-22 16-48l4-69z"id=path104 style=isolation:isolate fill=url(#linear-gradient-14) /></g><path d="M250 315s-18 12-21 24c-1 4 36-3 43-12"id=path106 style=isolation:isolate class=cls-23 /><path d="M429 269q-16 12-22 32l-4 17-3 12s-20 37-31 40c-7 3-21 5-20-3-1-7 20-29 6-30l-29-4s2-7 14-10 19-18 20-31l-1-9-3-7c-4-12-10-39 4-64 20-35 81-17 98 8 14 23-11 38-16 40l-1 1q-6 2-12 8"id=path107 style=mix-blend-mode:multiply;isolation:isolate fill=url(#linear-gradient-16) /><path d="M148 221q27 3 54 2a117 117 0 0 0 79-31q4-2 0-8-4-3-9 0c-17 13-41 24-66 25l-41-1h-24c-3-1-13 0-15-4v-3c3-55 8-116 66-141L326 1q12-3 14 9l-3 68c-2 76 46 169-21 183l-21 2a264 264 0 0 1-109-12q-22-7-42-22c-14-11-10-10 4-8"id=path108 style=isolation:isolate class=cls-24 /><path d="M148 221q27 3 54 2a117 117 0 0 0 79-31q4-2 0-8-4-3-9 0c-17 13-41 24-66 25l-41-1h-24c-3-1-13 0-15-4v-3c3-55 8-116 66-141L326 1q12-3 14 9l-3 68c-2 76 46 169-21 183l-21 2a264 264 0 0 1-109-12q-22-7-42-22c-14-11-10-10 4-8"id=path109 style=mix-blend-mode:multiply;isolation:isolate fill=url(#linear-gradient-17) /><path d="M127 185c3-50 13-102 65-125L326 1q12-3 14 9l-1 33c-45 2-104 26-150 55-37 22-43 47-62 87"id=path110 style=isolation:isolate fill=url(#radial-gradient-3) opacity=.3 /><path d="M249 186c34-21 34 1 34 1l-2-3q-4-3-9 0c-17 13-41 24-66 25l-41-1h-24c-3-1-13 0-15-4v-7c19 2 92 8 123-11"id=path113 style=mix-blend-mode:multiply;isolation:isolate fill=url(#linear-gradient-19) /><path d="M148 221q27 3 54 2a117 117 0 0 0 79-31l2-5s7 14-25 34c-25 16-88 12-112 9l-2-1c-14-11-10-10 4-8"id=path114 style=isolation:isolate fill=url(#radial-gradient-5) opacity=.3 /><g id=gc-eye><circle cx=200 cy=136.9 fill=#fff id=path118 r=48 /><g id=gc-pupil><path d="M174 137q10 6 19 0c9-6 11-18 3-26-6-7-17-7-24 0s-7 20 2 26"class=cls-24 /><circle cx=178.7 cy=116.6 fill=url(#linearGradient119) id=gc-pupilshine r=7.5 /></g><path d="M67 495h220M67 385h220"id=gc-eyelids fill=none clip-path=url(#clipPath120) stroke=#30ba78 stroke-width=10 transform="translate(18 -305)"/></g></g></svg>
