<svg id="geeko-laying" class="geeko-laying" xmlns="http://www.w3.org/2000/svg" id="svg79" viewBox="0 0 1073.12 404.41" preserveAspectRatio="xMidYMax meet"><defs id="defs58"><linearGradient id="gl-linear-gradient" x1="1347.04" x2="1424.83" y1="2808.2" y2="2927.02" gradientTransform="rotate(29.21 5872.13 -293.12)" gradientUnits="userSpaceOnUse"><stop id="stop3" offset="0" stop-color="#fff" stop-opacity="0"/><stop id="stop4" offset=".26" stop-color="#dee9e2" stop-opacity=".07"/><stop id="stop5" offset=".65" stop-color="#83ae92" stop-opacity=".27"/><stop id="stop6" offset="1" stop-color="#196835" stop-opacity=".5"/></linearGradient><linearGradient id="gl-linear-gradient-2" x1="1554.33" x2="1626.63" y1="2710.58" y2="2701.42" gradientTransform="rotate(29.21 5872.13 -293.12)" gradientUnits="userSpaceOnUse"><stop id="stop7" offset="0" stop-color="#fff" stop-opacity="0"/><stop id="stop8" offset=".05" stop-color="#f1f5f2" stop-opacity=".03"/><stop id="stop9" offset=".67" stop-color="#548f69" stop-opacity=".37"/><stop id="stop10" offset="1" stop-color="#196835" stop-opacity=".5"/></linearGradient><linearGradient id="gl-linear-gradient-3" x1="257.56" x2="257.56" y1="-555.75" y2="-365.46" gradientTransform="rotate(-13.77 3284.49 76.8)" gradientUnits="userSpaceOnUse"><stop id="stop11" offset="0" stop-color="#fff" stop-opacity="0"/><stop id="stop12" offset=".45" stop-color="#fafcfb" stop-opacity=".02"/><stop id="stop13" offset=".61" stop-color="#ebf2ee" stop-opacity=".08"/><stop id="stop14" offset=".72" stop-color="#d1e1d7" stop-opacity=".2"/><stop id="stop15" offset=".81" stop-color="#acc8b6" stop-opacity=".36"/><stop id="stop16" offset=".89" stop-color="#7ba88b" stop-opacity=".57"/><stop id="stop17" offset=".96" stop-color="#408258" stop-opacity=".83"/><stop id="stop18" offset="1" stop-color="#196835"/></linearGradient><linearGradient id="gl-linear-gradient-4" x1="444.14" x2="444.14" y1="588.09" y2="746.29" gradientUnits="userSpaceOnUse"><stop id="stop19" offset="0" stop-color="#1b6936" stop-opacity="0"/><stop id="stop20" offset=".57" stop-color="#1a6835" stop-opacity=".02"/><stop id="stop21" offset=".77" stop-color="#1a6835" stop-opacity=".08"/><stop id="stop22" offset=".92" stop-color="#196835" stop-opacity=".2"/><stop id="stop23" offset="1" stop-color="#196835" stop-opacity=".3"/></linearGradient><linearGradient id="gl-linear-gradient-5" x1="842.35" x2="842.35" y1="441.25" y2="707.99" gradientTransform="rotate(-4.42 -4336.36 1206.26)" gradientUnits="userSpaceOnUse"><stop id="stop24" offset="0" stop-color="#0d6b37" stop-opacity="0"/><stop id="stop25" offset=".51" stop-color="#0c6a36" stop-opacity=".02"/><stop id="stop26" offset=".7" stop-color="#0c6a36" stop-opacity=".08"/><stop id="stop27" offset=".83" stop-color="#0c6a36" stop-opacity=".19"/><stop id="stop28" offset=".93" stop-color="#0b6a36" stop-opacity=".35"/><stop id="stop29" offset="1" stop-color="#0b6a36" stop-opacity=".5"/></linearGradient>
  <linearGradient id="gl-linear-gradient-6" x1="0%" x2="100%" y1="100%" y2="0%" gradientUnits="objectBoundingBox"><stop id="stop36" offset="0" stop-color="#fff" stop-opacity="0"/><stop id="stop37" offset=".07" stop-color="#fff" stop-opacity=".1"/><stop id="stop38" offset=".27" stop-color="#fff" stop-opacity=".37"/><stop id="stop39" offset=".46" stop-color="#fff" stop-opacity=".59"/><stop id="stop40" offset=".63" stop-color="#fff" stop-opacity=".77"/><stop id="stop41" offset=".78" stop-color="#fff" stop-opacity=".9"/><stop id="stop42" offset=".91" stop-color="#fff" stop-opacity=".97"/><stop id="stop43" offset="1" stop-color="#fff"/></linearGradient><linearGradient id="gl-linear-gradient-7" x1="852.15" x2="903.08" y1="593.07" y2="681.3" gradientTransform="rotate(-4.42 -4336.36 1206.26)" gradientUnits="userSpaceOnUse"><stop id="stop44" offset="0" stop-color="#fff" stop-opacity="0"/><stop id="stop45" offset="1" stop-color="#196835" stop-opacity=".5"/></linearGradient><linearGradient id="gl-linear-gradient-8" x1="658.21" x2="661.45" y1="436.84" y2="743.72" gradientTransform="translate(-63.44 -398.14)" href="#linear-gradient-4"/><linearGradient id="gl-linear-gradient-9" x1="295.32" x2="295.32" y1="-604.69" y2="-544.77" gradientTransform="rotate(-13.77 3284.49 76.8)" gradientUnits="userSpaceOnUse"><stop id="stop46" offset="0" stop-color="#fff" stop-opacity="0"/><stop id="stop47" offset=".21" stop-color="#f6f9f7" stop-opacity=".04"/><stop id="stop48" offset=".4" stop-color="#dde9e1" stop-opacity=".14"/><stop id="stop49" offset=".59" stop-color="#b4cdbd" stop-opacity=".33"/><stop id="stop50" offset=".77" stop-color="#79a789" stop-opacity=".58"/><stop id="stop51" offset=".95" stop-color="#2e7647" stop-opacity=".91"/><stop id="stop52" offset="1" stop-color="#196835"/></linearGradient><linearGradient id="gl-linear-gradient-10" x1="256.9" x2="256.9" y1="-701.75" y2="-586.69" gradientTransform="rotate(-13.77 3284.49 76.8)" gradientUnits="userSpaceOnUse"><stop id="stop53" offset="0" stop-color="#fff" stop-opacity="0"/><stop id="stop54" offset=".17" stop-color="#bdd4c5" stop-opacity=".28"/><stop id="stop55" offset=".4" stop-color="#76a586" stop-opacity=".6"/><stop id="stop56" offset=".62" stop-color="#428359" stop-opacity=".82"/><stop id="stop57" offset=".82" stop-color="#236e3e" stop-opacity=".95"/><stop id="stop58" offset="1" stop-color="#196835"/></linearGradient><linearGradient id="gl-linearGradient79" x1="444.14" x2="444.14" y1="588.09" y2="746.29" gradientTransform="translate(-63.44 -398.14)" gradientUnits="userSpaceOnUse" href="#linear-gradient-4"/><radialGradient id="gl-radial-gradient" cx="600" cy="749.63" r="630.34" fx="600" fy="749.63" gradientTransform="matrix(1 0 0 .03 -63.44 329.92)" gradientUnits="userSpaceOnUse"><stop id="stop1" offset="0" stop-color="#025937"/><stop id="stop2" offset=".85" stop-color="#025937" stop-opacity="0"/></radialGradient><radialGradient id="gl-radial-gradient-2" cx="850.06" cy="536.25" r="100.11" fx="850.06" fy="536.25" gradientTransform="rotate(-4.42 853.87 583.38)" gradientUnits="userSpaceOnUse"><stop id="stop30" offset="0" stop-color="#a7d8bb"/><stop id="stop31" offset="1" stop-color="#fff" stop-opacity="0"/></radialGradient><radialGradient id="gl-radial-gradient-3" cx="879.99" cy="575.1" r="51.57" fx="879.99" fy="539.14" gradientTransform="rotate(-4.42 -4336.36 1206.26)" gradientUnits="userSpaceOnUse"><stop id="stop32" offset="0" stop-color="#fff"/><stop id="stop33" offset=".53" stop-color="#fdfdfd"/><stop id="stop34" offset=".73" stop-color="#f6f6f6"/><stop id="stop35" offset=".82" stop-color="#efefef"/></radialGradient><radialGradient id="gl-radial-gradient-4" cx="872" cy="653.52" r="55.01" fx="872" fy="653.52" gradientTransform="translate(-63.44 -398.14)" href="#radial-gradient-2"/><radialGradient id="gl-radial-gradient-5" cx="1404.83" cy="2758.47" r="182.32" fx="1404.83" fy="2758.47" gradientTransform="rotate(29.21 5872.13 -293.12)" href="#radial-gradient-2"/><radialGradient id="gl-radial-gradient-6" cx="257.95" cy="-688.17" r="91.39" fx="257.95" fy="-688.17" gradientTransform="rotate(-13.77 3284.49 76.8)" href="#radial-gradient-2"/><radialGradient id="gl-radialGradient79" cx="850.06" cy="536.25" r="100.11" fx="850.06" fy="536.25" gradientTransform="rotate(-4.42 -4336.36 1206.26)" gradientUnits="userSpaceOnUse" href="#radial-gradient-2"/><radialGradient id="gl-radialGradient82" cx="879.99" cy="575.1" r="51.57" fx="879.99" fy="539.14" gradientTransform="rotate(-4.42 -4336.36 1206.26)" gradientUnits="userSpaceOnUse" href="#radial-gradient-3"/><clipPath id="gl-clipPath81" clipPathUnits="userSpaceOnUse"><path id="gl-path82" fill="url(#gl-radialGradient82)" d="M864.94 159.38c11.59 36.43-19.18 72.36-56.96 66.5a51.9 51.9 0 0 1-41.28-35.33c-11.56-36.4 19.2-72.32 56.96-66.5a51.8 51.8 0 0 1 41.28 35.32" class="cls-15"/></clipPath><style id="style1">.cls-15{fill:url(#gl-radial-gradient-3)}.cls-17{isolation:isolate}.cls-18{fill:#34b677}</style></defs><path id="gl-path58" fill="url(#gl-radial-gradient)" d="M1073.12 351.49c0 29.23-398.46 52.92-638.5 52.92S0 380.7 0 351.49s194.59-52.92 434.62-52.92 638.5 23.69 638.5 52.92" opacity=".4" style="mix-blend-mode:multiply;isolation:isolate"/><path id="gl-path59" d="M454.41 316.54a408 408 0 0 1-117.08 21.96c-67.82 2.43-138.86-13.06-198.13-46.65-36.38-20.61-69.28-54.51-80.7-94.31-16.17-56.32-7.72-90.77 13.85-129.42 34.41-61.61 133.2-93.26 188.48-43.75 24.88 22.29 37.75 57.63 31.71 90.49-6.04 32.84-31.36 61.7-63.49 70.73-24.94 6.99-54.85.77-70.19-20.11-11.7-15.95-12.89-38.91-2.88-55.97 3.9-6.66 9.88-12.8 18.02-12.96 4.79-.1 9.43 2.39 11.25 6.83 2.68 6.56-2.19 12.43-4.57 18.55-4.3 11.05.5 24.87 10.74 30.85 8.64 5.05 19.48 4.52 29.19 2.1 9.05-2.23 17.91-6.11 24.6-12.6 9.39-9.14 13.79-22.75 13.25-35.87-1.62-39.2-39.42-62.1-81.17-54.4-21.37 3.92-41.45 14.7-54.65 31.96-33.43 43.7-26.86 114.66 29.69 139.54 53.68 23.62 108.52.7 137.74-25.56 11.44-10.3 62.12-55.7 108.38-74.35 41.38 38.17 151.49 116.6 55.96 192.93z" class="cls-18" style="isolation:isolate"/><path id="gl-path60" d="M721.21 141.35c-15.91-11.25-110.87-29.08-121.33-30.97a424 424 0 0 0-53.82-6.04c-29.7-1.43-59.49.07-89 3.68-31.62 4.5-114.8 22.33-130.1 86.27-12.72 49.04 31.12 94.13 59.4 117.29 5.76 3.6 9.48 6.19 14.82 10.43 66.88 26.67 137.91 17.49 150.56 14.15 6.47-1.81 13.17-3.72 20.28-5.61a221 221 0 0 1 9.07-2.34l.39-.1c26.22-6.48 43.53-11.28 57.09-16.48 16.19-6.21 27.04-12.97 41.3-23.81 26.2-19.92 67.16-128.23 41.35-146.5z" class="cls-18" style="isolation:isolate"/><path id="gl-path61" fill="url(#gl-linear-gradient)" d="M679.86 287.84c9.26-7.04 20.35-25.13 29.7-46.37-56.23-26.78-284.61-37.08-284.61-37.08s-307.28 67.67-310.03 64.66c7.83 31.89 153.32 71.38 178.32 68.53 23.13 2.86 70.88 1.17 108.18-3.81 10.83.48 27.11-.03 45.13 1.33 31.13 6.52 76.87 7.32 105.17 1.07 6.47-1.81 13.17-3.72 20.28-5.61a221 221 0 0 1 9.07-2.34l.39-.1c26.22-6.48 43.53-11.28 57.09-16.48 16.19-6.21 27.04-12.97 41.3-23.81z" style="mix-blend-mode:multiply;isolation:isolate"/><path id="path62" fill="url(#gl-linear-gradient-2)" d="M721.21 141.35c-4.88-3.45-17.23-7.53-32.28-11.57 0 .02-4.85 49.2-47.12 101.15-12.67 15.57-53.64 97.07-37.68 90.74 7.84-3.11 57.44-12.8 78.2-38.32 25.62-31.5 26.86-71.45 40.76-79.56 7.84-28.17 9.64-54.28-1.88-62.44" style="mix-blend-mode:multiply;isolation:isolate"/><path id="path63" fill="url(#linear-gradient-3)" d="m368.46 336.09-15.34-26.63c-173.06 34.29-285.03-95.38-288.25-94.9 14.78 32.38 43.26 59.7 74.33 77.29 59.28 33.59 130.32 49.08 198.14 46.65q15.61-.58 31.13-2.41z" style="mix-blend-mode:multiply;isolation:isolate"/><path id="path64" d="M422.08 326.54c-21.38-5.88-21.63-31.78-16.7-37.11h-.05c.28-.84 13.49-17.58 17.71-35.58s-9.14-65.81-51.05-63.84-79.99 25.36-59.54 63.59q.08.14.15.32a237 237 0 0 1 4.94 8.03c7.85 13.5 14.54 27.63 20.75 41.96 5.97 13.78 11.56 27.68 23.51 37.78 7.91 6.7 17.68 6.46 28.04 6.46h59.17c8.04 0 6.08-5.36 2.61-8.91-7.84-8.02-19.11-9.83-29.55-12.7z" class="cls-18" style="isolation:isolate"/><path id="path65" fill="url(#linearGradient79)" d="M422.08 326.54c-21.38-5.88-21.63-31.78-16.7-37.11h-.05c.28-.84 13.49-17.58 17.71-35.58s-9.14-65.81-51.05-63.84-79.99 25.36-59.54 63.59q.08.14.15.32a237 237 0 0 1 4.94 8.03c7.85 13.5 14.54 27.63 20.75 41.96 5.97 13.78 11.56 27.68 23.51 37.78 7.91 6.7 17.68 6.46 28.04 6.46h59.17c8.04 0 6.08-5.36 2.61-8.91-7.84-8.02-19.11-9.83-29.55-12.7z" style="mix-blend-mode:multiply;isolation:isolate"/><path id="path73" d="M550.99 292.07c11.27 4.18 22.1 15.19 29.16 25.26 3.69 5.3 6.77 10.44 8.49 15.58 1.22 3.65 2.79 8.45 6.38 10.39.2.1.37.2.59.27 6.6 2.4 23.58 2 23.58 2h31.22c2.67.04 26.13-.03 25.54-2.65-2.83-12.54-17.33-14.8-28.38-21.35-10.18-6.07-19.83-12.95-24.21-24.78-.83-2.22-1.17-5.5-1.09-9.02v-.04c.06-2.47.32-5.05.79-7.47.74-13.03 11.72-58.92-8.99-79.63-28.12-28.12-82.68 5.06-91.68 33.75-8.1 25.82 7.11 45.2 10.2 48.1 3.09 2.92 13.01 7.6 18.39 9.6z" class="cls-18" style="isolation:isolate"/><path id="path74" fill="url(#gl-linear-gradient-8)" d="M550.99 292.07c11.27 4.18 22.1 15.19 29.16 25.26 3.69 5.3 6.77 10.44 8.49 15.58 1.22 3.65 2.79 8.45 6.38 10.39.2.1.37.2.59.27 6.6 2.4 23.58 2 23.58 2h31.22c2.67.04 26.13-.03 25.54-2.65-2.83-12.54-17.33-14.8-28.38-21.35-10.18-6.07-19.83-12.95-24.21-24.78-.83-2.22-1.17-5.5-1.09-9.02v-.04c.06-2.47.32-5.05.79-7.47.74-13.03 11.72-58.92-8.99-79.63-28.12-28.12-82.68 5.06-91.68 33.75-8.1 25.82 7.11 45.2 10.2 48.1 3.09 2.92 13.01 7.6 18.39 9.6z" style="mix-blend-mode:multiply;isolation:isolate"/><path id="path75" fill="url(#gl-radial-gradient-5)" d="m708.56 180.73 20.81-14.02c.23-11.85-2.12-21.1-8.16-25.36-15.91-11.25-110.87-29.08-121.33-30.97a424 424 0 0 0-53.82-6.04c-29.7-1.43-59.49.07-89 3.68a279 279 0 0 0-34.18 7.12c-8.66.68-33.73 12.3-41.2 15.86s-33.16 19.22-45.56 29.26c-50.12 34.94-52.27 54.29-107.43 69.6 62.53 9.45 76.82-65.88 199.37-87.56 122.57-21.7 280.5 38.43 280.5 38.43" opacity=".3" style="isolation:isolate"/><path id="path76" fill="url(#gl-radial-gradient-6)" d="M171.72 24.96C248.83 9.74 290.31 73 290.68 73.56c-4.98-18.77-15.35-36.2-29.85-49.2-55.28-49.5-154.08-17.85-188.48 43.76-8.25 14.78-14.56 28.95-18.32 43.95 0 0 40.24-71.83 117.7-87.11z" opacity=".3" style="isolation:isolate"/><path id="path77" fill="url(#gl-linear-gradient-9)" d="M149.87 143.35a50.5 50.5 0 0 0 8.99 22.14c15.33 20.88 45.25 27.1 70.19 20.1 30.18-8.47 54.34-34.45 62.17-64.8-.23.36-30.02 44.8-73.29 57.7-42.91 12.8-67.45-33.98-68.06-35.14" style="mix-blend-mode:multiply;isolation:isolate"/><path id="path78" fill="url(#gl-linear-gradient-10)" d="M122.64 83.98c13.2-17.26 33.28-28.05 54.65-31.96 41.75-7.7 79.55 15.2 81.17 54.4 0 0-.75-95.67-99.11-65-98.36 30.66-52.78 131.08-52.78 131.08v-.03c-9.12-29.21-3.15-63.35 16.07-88.47z" style="mix-blend-mode:multiply;isolation:isolate"/><g id="gl-head"><path id="path66" d="M875.47 261.95a333 333 0 0 1-53.21 5.15c-16.64.32-33.12-.37-48.7-6.91-12.26-5.18-22.87-10.5-32.95-19.2-1.51-1.32-2.7-5.41-.34-8.26 2.29-2.77 7.67-1.68 9.39-.43 17.37 12.37 42.57 21.72 67.86 21a436 436 0 0 0 40.54-2.8c6.79-.83 17.07-1.58 23.9-2.18 3.52-.32 13.21-.04 14.72-3.92.46-1.13.32-2.38.18-3.6-6.21-54.36-15-115.53-74.06-137.2-44.07-16.17-110.22-41.38-138.14-51.81-6.48-2.5-13.42 2.78-12.89 9.74 1.41 18.2 4.36 44.3 6.21 68.12 6.82 76.5-35.85 171.4 31.79 181.68 7.17.17 14.3.92 21.46 1.25 13.83.73 27.71.37 41.49-1.07 22.74-2.4 45.3-7.8 66.33-16.82 14.69-6.23 29.02-14.22 41.1-24.74 13.74-11.96 9.98-10.65-4.67-8z" class="cls-18" style="isolation:isolate"/><path id="gl-path67" fill="url(#gl-linear-gradient-5)" d="M875.47 261.95a333 333 0 0 1-53.21 5.15c-16.64.32-33.12-.37-48.7-6.91-12.26-5.18-22.87-10.5-32.95-19.2-1.51-1.32-2.7-5.41-.34-8.26 2.29-2.77 7.67-1.68 9.39-.43 17.37 12.37 42.57 21.72 67.86 21a436 436 0 0 0 40.54-2.8c6.79-.83 17.07-1.58 23.9-2.18 3.52-.32 13.21-.04 14.72-3.92.46-1.13.32-2.38.18-3.6-6.21-54.36-15-115.53-74.06-137.2-44.07-16.17-110.22-41.38-138.14-51.81-6.48-2.5-13.42 2.78-12.89 9.74 1.41 18.2 4.36 44.3 6.21 68.12 6.82 76.5-35.85 171.4 31.79 181.68 7.17.17 14.3.92 21.46 1.25 13.83.73 27.71.37 41.49-1.07 22.74-2.4 45.3-7.8 66.33-16.82 14.69-6.23 29.02-14.22 41.1-24.74 13.74-11.96 9.98-10.65-4.67-8z" style="mix-blend-mode:multiply;isolation:isolate"/><path id="gl-path68" fill="url(#gl-radialGradient79)" d="M894.97 225.18c-6.45-50-18.72-101.98-72.18-121.58-44.07-16.18-110.22-41.4-138.14-51.82-6.48-2.5-13.42 2.78-12.89 9.74.73 9.42 1.87 20.96 3.06 33.19 26.64 4.54 112.6 3.27 162.57 31.39 35.56 20 37 62.2 57.58 99.07z" opacity=".3" style="isolation:isolate"/><path id="path69" fill="url(#gl-radial-gradient-3)" d="M864.94 159.38c11.59 36.43-19.18 72.36-56.96 66.5a51.9 51.9 0 0 1-41.28-35.33c-11.56-36.4 19.2-72.32 56.96-66.5a51.8 51.8 0 0 1 41.28 35.32" class="cls-15" style="isolation:isolate"/><g id="gl-pupil"><path id="gl-path70" d="M811.21 167.9a17.8 17.8 0 0 1-19.39 1.5 17.7 17.7 0 0 1-4.85-26.96 17.35 17.35 0 0 1 24.9-1.94 17.75 17.75 0 0 1-.65 27.4" class="cls-18" style="isolation:isolate"/><circle id="gl-circle70" cx="804.97" cy="146.07" r="7.78" fill="url(#gl-linear-gradient-6)" style="isolation:isolate"/></g><path id="path71" fill="url(#gl-linear-gradient-7)" d="M773.1 232.87c-35.84-18.8-34.07 2.63-34.07 2.63h.02a6 6 0 0 1 1.22-2.8c2.29-2.76 7.67-1.67 9.39-.42 17.37 12.37 42.57 21.72 67.86 21a436 436 0 0 0 40.54-2.8c6.79-.83 17.07-1.58 23.9-2.18 3.52-.32 13.21-.04 14.72-3.92.46-1.13.32-2.38.18-3.6l-.43-3.68c-19.2 2.8-91.2 12.62-123.33-4.23" style="mix-blend-mode:multiply;isolation:isolate"/><path id="path72" fill="url(#gl-radial-gradient-4)" d="M875.47 261.95a333 333 0 0 1-53.21 5.15c-16.64.32-33.12-.37-48.7-6.91-12.26-5.18-22.87-10.5-32.95-19.2-1.06-.92-1.93-3.2-1.57-5.47 0 0-6.35 14.87 26.53 33.09 26.29 14.57 88.95 6.42 113.02 2.56.5-.42 1.06-.8 1.56-1.22 13.74-11.96 9.98-10.65-4.67-8z" opacity=".3" style="isolation:isolate"/><path id="gl-eyelids" fill="#30ba78" fill-opacity=".06" stroke="#30ba78" stroke-linejoin="round" stroke-width="43.78" d="m697.14 211.92 221.68 27.93M726.55 111.02l221.68 27.93" clip-path="url(#gl-clipPath81)"/></g></svg>
